:SAMPLES-PER-SECOND 30
:FRAME-RANGE 1-1086
:FULLY-SPECIFIED
:DEGREES
713
root  108.883 39.5909 -25.5051 174.634 -74.4079 -165.43
RightUpLeg  -14.1418 -17.0659 -6.39171
RightLeg  13.175 -26.0856 -3.2291
RightFoot  -2.67417 -0.519035 6.60049
RightToes  1.21801e-010 1.2921e-014 -6.02303e-014
Spine  -0.550427 -0.574494 -0.468446
Spine1  5.50085 -0.208332 -1.54852
HEad  12.9764 -32.5442 17.1639
LeftShoulder1  0.300961 1.85573 -14.0693
LeftArm  9.11004 25.376 -29.7875
LeftForeArm  41.8022 -77.2914 -58.1562
LeftHand  0.0541228 2.31747 -2.5857
RightShoulder  1.37907 0.942261 26.4023
RightArm  18.6121 0.865478 37.1793
RightForeArm  16.0185 69.4389 30.6674
RightHand  0.124162 -8.02397 -6.97063
LeftUpLeg  -17.1763 12.0905 11.927
LeftLeg  13.874 24.0887 6.67603
LeftFoot  2.56404 1.13074 -9.38575
LeftToes  3.79492e-011 -8.60219e-011 1.56273e-011
714
root  108.966 39.5696 -26.3365 177.775 -71.5764 -168.812
RightUpLeg  -14.6436 -18.1515 -5.12926
RightLeg  13.8392 -26.4926 -3.88426
RightFoot  -2.90393 -0.435189 5.6259
RightToes  1.21801e-010 1.2921e-014 -6.02303e-014
Spine  -1.10382 -1.1963 -1.31313
Spine1  5.42148 -0.978263 -0.921975
HEad  13.771 -30.5208 16.5859
LeftShoulder1  0.369354 1.53231 -14.1445
LeftArm  9.07343 24.4416 -29.8665
LeftForeArm  37.4019 -76.6627 -54.021
LeftHand  0.0644483 2.65651 -3.45294
RightShoulder  1.2282 0.443098 26.6851
RightArm  18.2418 0.125727 37.079
RightForeArm  17.22 69.8277 31.2874
RightHand  0.141783 -8.31715 -7.01605
LeftUpLeg  -14.6156 13.2473 13.3256
LeftLeg  11.6539 25.9999 5.72959
LeftFoot  3.91569 1.37362 -10.4127
LeftToes  3.79492e-011 -8.60219e-011 1.56273e-011
715
root  109.038 39.5342 -27.2924 -179.846 -68.7492 -171.221
RightUpLeg  -15.1394 -18.4829 -3.52875
RightLeg  14.4228 -24.3601 -4.23696
RightFoot  -3.22138 -0.487532 6.5513
RightToes  1.21801e-010 1.2921e-014 -6.02303e-014
Spine  -2.08146 -1.73847 -2.00013
Spine1  5.56621 -1.6995 -0.125997
HEad  14.4807 -28.1402 15.2575
LeftShoulder1  0.461693 1.11632 -14.4291
LeftArm  9.03969 23.5994 -30.0105
LeftForeArm  32.9465 -75.9064 -49.9754
LeftHand  0.0708401 2.52948 -3.53084
RightShoulder  1.08692 0.0267332 26.5018
RightArm  17.346 -1.1568 37.2273
RightForeArm  19.283 70.5743 32.6171
RightHand  0.149579 -8.56059 -6.8109
LeftUpLeg  -11.6356 13.2451 14.7509
LeftLeg  8.44698 29.0051 4.80627
LeftFoot  5.71779 1.69131 -11.48
LeftToes  3.79492e-011 -8.60219e-011 1.56273e-011
716
root  109.085 39.4976 -28.2788 -178.843 -66.3066 -172.437
RightUpLeg  -15.1306 -16.5121 -2.47602
RightLeg  14.7496 -22.4338 -4.18836
RightFoot  -2.78014 -0.481109 6.16755
RightToes  1.21801e-010 1.2921e-014 -6.02303e-014
Spine  -2.74944 -2.30113 -1.96191
Spine1  5.60166 -2.53748 0.951103
HEad  14.911 -25.4581 13.1538
LeftShoulder1  0.627019 0.390942 -14.8949
LeftArm  8.56192 23.5023 -30.4327
LeftForeArm  30.3572 -75.3524 -47.3735
LeftHand  0.0701691 2.601 -3.61327
RightShoulder  0.93761 -0.394699 26.0351
RightArm  16.4136 -2.33735 37.3369
RightForeArm  21.4291 71.3097 34.0497
RightHand  0.161713 -8.97172 -6.49372
LeftUpLeg  -8.7888 13.0137 15.8819
LeftLeg  5.84168 31.3189 4.57107
LeftFoot  6.19209 1.64558 -10.8909
LeftToes  3.79492e-011 -8.60219e-011 1.56273e-011
717
root  109.149 39.4008 -29.3224 -179.808 -64.1102 -172.007
RightUpLeg  -14.9701 -17.7417 -0.346637
RightLeg  15.9817 -19.0462 -4.32535
RightFoot  -4.18756 -0.426256 6.35513
RightToes  1.21801e-010 1.2921e-014 -6.02303e-014
Spine  -2.79288 -2.98872 -1.34221
Spine1  5.68462 -3.55328 2.101
HEad  15.2054 -22.1269 10.9345
LeftShoulder1  0.692343 0.166048 -15.4862
LeftArm  8.24976 22.8581 -30.5962
LeftForeArm  27.1659 -74.685 -44.7647
LeftHand  0.0744217 2.55947 -3.87375
RightShoulder  0.878277 -0.565105 25.8452
RightArm  15.6935 -2.78944 37.1301
RightForeArm  22.7612 71.8258 35.1918
RightHand  0.164288 -9.2233 -6.19251
LeftUpLeg  -7.00163 13.6917 17.845
LeftLeg  7.14358 32.0639 5.80742
LeftFoot  2.54621 1.36959 -11.3448
LeftToes  3.79492e-011 -8.60219e-011 1.56273e-011
